<?xml version="1.0" encoding="utf-8"?>
<!-- Generator: Adobe Illustrator 25.0.0, SVG Export Plug-In . SVG Version: 6.00 Build 0)  -->
<svg version="1.1" id="Layer_1" xmlns="http://www.w3.org/2000/svg" xmlns:xlink="http://www.w3.org/1999/xlink" x="0px" y="0px"
	 viewBox="0 0 1388.9 1120.1" style="enable-background:new 0 0 1388.9 1120.1;" xml:space="preserve">
<style type="text/css">
	.st0{fill:#FFF5F5;}
	.st1{fill:#32334C;}
	.st2{fill:#29293D;}
	.st3{fill:#222233;}
	.st4{fill:#507AB3;}
	.st5{fill:#3C5E87;}
	.st6{fill:#335073;}
	.st7{fill:#FFAA94;}
	.st8{fill:#FF6987;}
	.st9{fill:#DEC9C3;}
	.st10{fill:#DE5B75;}
	.st11{fill:#BF6262;}
	.st12{fill:#9C4146;}
	.st13{fill:#7D3539;}
	.st14{fill:#F6E2D8;}
	.st15{fill:#E7673F;}
	.st16{fill:#C74736;}
	.st17{fill:#FF9C46;}
	.st18{fill:#E88F87;}
	.st19{fill:#964F41;}
	.st20{fill:#783F34;}
	.st21{fill:#F08043;}
	.st22{fill:#7D4A39;}
	.st23{fill:#633B2D;}
	.st24{fill:#B85334;}
	.st25{fill:#CC703D;}
	.st26{fill:#7299C9;}
	.st27{fill:#5C7EA8;}
	.st28{fill:#455F80;}
</style>
<path class="st0" d="M65.1,693.3c-99-309.8,50-487.9,273.5-512.6c207.4-23.1,234.5,158.9,342.8,30.5
	c53.4-63.3,213.7-194,446.2-126.1c270.3,78.8,254.1,373.1,182.1,629C1213.4,1056.3,251,1275,65.1,693.3z"/>
<g id="pipo">
	<path class="st1" d="M904.3,591.6c0,0-0.5,121.3,0,160.4c-8.6,82.4,37.5,263,35.9,280.3c1.1,4.5,15,0,15,0s22.5-189.1,6.4-274.1
		c3.2-63.5,38-136.9,38-151.3C999.6,592.5,904.3,591.6,904.3,591.6z"/>
	<path class="st2" d="M904.3,591.7c0,0-0.5,113.3-0.1,156.2c14.7-16.1,41.2-41.8,66.9-47.3c11.3-44.3,28.4-83.4,28.4-93.6
		C999.6,592.5,904.3,591.7,904.3,591.7z"/>
	<path class="st3" d="M904,677.3v10.7c0,0,38-63.2,45.8-70.1c2.1-6.2-17.4-9.6-17.4-9.6L904,677.3z"/>
	<path class="st1" d="M833.3,575.4c0,0-20,123.1-12.1,182.9c-37.1,94-39.4,255-51.2,269.5c2.7,4.3,21.4,0,21.4,0s50.9-108.2,61-166
		c10.2-57.8,7-78.7,15-100.7c8-22,70.1-141.9,70.7-150.4C938.6,602.1,833.3,575.4,833.3,575.4z"/>
	<path class="st2" d="M938,610.7c0.5-8.6-104.7-35.3-104.7-35.3s-1.7,10.2-3.8,26.2c40,43.8,75.9,49.4,90.6,49.7
		C930.2,630.1,937.8,613.7,938,610.7z"/>
	<path class="st4" d="M845.1,237.7c0,0-35.7,14.3-33.2,55.3c2.5,41,6.1,96,3.6,103.9c-2.5,7.9,2.5,17.8,2.1,20
		c-0.4,2.1-20.9,60-18,77.3c2.9,17.3,35,25.5,35,25.5s-9.8,44.6-7.3,51.4c-4.6,10.4-17.1,13.6,40,33.6
		c57.1,20,125.3,31.1,130.6,27.1c5.4-3.9,4.6-11.1,4.6-11.1s18.2-37.5,19.6-78.5c1.4-41-12.1-72.5-12.1-73.9
		c0-1.4,18.6-13.6,13.9-43.2c-4.6-29.6-24.6-129.6-33.5-152.4s-39.6-41.1-39.6-41.1L845.1,237.7z"/>
	<path class="st5" d="M987.4,314.8c-1.6,4.6-40.4,73.2-103.7,71c0,0,4.2,26.7-7.3,54.7c85.9,29.6,118.8-2.8,119.1-4.7
		c-52.7,0.3-63.2-12.1-63.2-12.1s46-8.8,63.2-24.9C988.6,339,987.4,314.8,987.4,314.8z"/>
	<path class="st5" d="M887,611c52,15.9,106.2,24.2,110.9,20.7c5.4-3.9,4.6-11.1,4.6-11.1s16-33,19.2-71
		C944.8,523.9,899,590.6,887,611z"/>
	<path class="st6" d="M928.5,602.5c-22-4.8-45.5-8.4-66.4-16.8c-12.3-4.9-23.4-12.1-35.3-17.9c0,1.4,0.1,2.6,0.4,3.3
		c-0.1,0.2-0.2,0.5-0.3,0.7c11.5,6,22.4,13,34.4,17.9c19.2,7.8,40.5,11.3,60.6,15.8c26.8,6,53.9,11.1,81.2,13.9c0.4-1,1.1-2.5,2-4.5
		C979.4,612.4,954,608.1,928.5,602.5z"/>
	<path class="st5" d="M885.2,269.1c0,0,18.1,3.3,17-19.4c-2.5-7,47.7-22.4,52.2-19.9c4.5,2.5,23.1,73.5-11.6,89.2
		c-34.6,15.7-86-53.1-82-62.9C876,269.1,885.2,269.1,885.2,269.1z"/>
	<path class="st6" d="M944.7,212.8c-0.5-0.8-4.5,3.2-3.8,4.5c4.8,9,6.7,19,8.2,29c0.9,6.5,2.1,14.1-0.1,20.4
		c-1.9,5.4-12.5,14.3-18.2,15.3c-3,0.5-6.6-0.1-9.5-0.4c-21.8-2.8-42-13.6-57.8-28.7c-0.6-0.6-3.3,2.5-2.6,3.3
		c12.3,12.5,26.9,21.8,43.8,26.8c11.4,3.4,25.6,6.8,36.1-0.5c8.3-5.8,12.7-16.1,13.4-25.9C955.2,242.9,952.1,224.4,944.7,212.8z"/>
	<path class="st7" d="M823.6,102.1c0,0-23.5,94.6,24.4,93.9c21.4-2.5,44.6-60.5,42.5-66.7C888.2,123.1,823.6,102.1,823.6,102.1z"/>
	<path class="st1" d="M848.1,134.5c0,0,8-16.5,18.7-5.2c10.7,11.3-6.7,26.6-11,23.9c-17.1,10.7-20.1,34.6-12.6,37
		c7.5,2.4-13.9,16.3-11.5,40.1c2.4,23.8,45.5,19.8,53,18.5c7.5-1.3,4.8,15.8,34.5,15c29.7-0.8,43.1-22.2,45.8-46.8
		c2.7-24.6-18.7-35.1-22-40.2c-3.2-5.1,5.1-5.9,3.5-13.1c-1.6-7.2-11.5-7.9-10.7-16c0.8-8.1,26-21.7,17.1-49.6
		c-8.8-27.8-42-28.1-53-22c-9.9-21.7-62.5-27-68.4,4.6C818.1,89.8,820.3,133.1,848.1,134.5z"/>
	<path class="st8" d="M701.1,1088.3c0,0,57.8-56.8,61-64.8c3.2-8,0-26.8,3.5-25.2c3.5,1.6,11.5,21.1,12.8,21.4
		c1.3,0.3,24.6-8,25.4-4.8c0.8,3.2-4,35.6-5.9,38.5C741.6,1070.6,707,1088.5,701.1,1088.3z"/>
	<path class="st8" d="M926.2,1077c0,0,34.5,0,37.2,0c2.4-2.9-3.6-47.9-5.4-51.7c-1.7-3.7-13.9-3.4-20.1,9
		C931.9,1046.8,926.2,1077,926.2,1077z"/>
	<path class="st9" d="M798,1053.4c0,0,2.6,11.4,0,14.3c-2.6,2.9-79.3,29.4-98.8,26.4c0-1.6,1.9-5.9,1.9-5.9S785.6,1053.1,798,1053.4
		z"/>
	<path class="st9" d="M926.2,1077c0,0-4.4,16.5-3.9,17.4c0.5,0.8,40.6,0.4,41.6,0c1-0.4-0.3-18.1-0.3-18.1S941.4,1075.7,926.2,1077z
		"/>
	<path class="st10" d="M962.1,1049.5c-6.2,0.4-13.5,1.7-19.7,1.1c-1.1-4,0.5-11.4,0.7-14.8c0.2-2.9,0.3-5.8,0.5-8.7
		c-1.4,1.2-2.7,2.7-3.9,4.4c-0.2,2.7-0.3,5.4-0.5,8.2c-0.2,2.8-2.1,9.1,0,11.4c1,1.1,3.3,1.3,4.7,1.4c6,0.5,12.4-0.1,18.6-0.6
		C962.3,1051.2,962.2,1050.4,962.1,1049.5z"/>
	<path class="st10" d="M755.3,1047.9c8.8-8.4,17.3-18.3,25.1-28.5c-1,0.3-1.7,0.4-1.9,0.4c-0.4-0.1-1.3-1.7-2.5-4
		c-2.7,3.5-5.3,6.9-8.1,10.3c-3.8,4.7-7.7,9.3-11.6,13.9c-1.6,1.8-3.3,4.7-5.3,6.1c-1.7,3.1-4,3.6-6.9,1.5c-0.9,0-1.6-0.1-2.3-0.4
		c-0.5,0.6-1.1,1.1-1.6,1.7C744.8,1052.1,750.4,1052.6,755.3,1047.9z"/>
	<path class="st10" d="M801.4,1038.2c-2.2,0-4.5,0-6.7-0.1c-2.3,0-4.3,0.7-5.5-1.4c-1.2-2-0.1-4.1,0.6-6.2
		c1.9-5.4,4.9-10.4,7.1-15.6c-1.7,0.4-3.6,0.8-5.5,1.4c-1.2,2.7-2.5,5.3-3.7,8c-1.4,3.1-5.2,10.3-3.1,13.6c1.2,1.9,4.7,2.1,6.6,2.2
		c3.2,0.2,6.5,0.4,9.8,0.5C801.1,1039.8,801.3,1039,801.4,1038.2z"/>
	<path class="st9" d="M766,1031.4c-1.2-2-2.4-5.9-3.6-7.5c-2.2,1.1-3.4,2.6-3.4,4.5c0,0.3,0,0.6,0.2,0.9c0.3,1.3,1.4,3,2,4.2
		c0.4,0.7,1,1.6,1.7,2.6c-3.1-1.3-6.8-3.8-7.9-4.4c-1.2-0.6-3.2,2.6-3.3,3.5c-0.1,2.3,0.4,4.2,1.3,6.2c0.5,1,1.2,2.2,1.8,3.4
		c-1.3-0.5-2.5-1.2-3.2-1.5c-1.9-0.9-3.7-2-5.6-3.1c-1.2-0.7-4.5,3.8-3.5,4.5c2.8,1.9,10.4,6.8,13.8,4.9c1.2-0.7,2.8-2.3,2.8-3.8
		c-0.1-2.5-1.2-4.7-2.3-7c4.2,2.3,8.9,3.9,11.2-1.2C769.2,1035.2,767.2,1033.5,766,1031.4z"/>
	<path class="st2" d="M852.6,782.9c-1.9-4.6-5.2-8.4-6.9-13.2c-1.6-4.6-2.1-9.3-2.3-14.2c0-0.8-3.2,2.2-3.3,3.2
		c-0.8,8.4,1.6,22.7,9.7,27.3C850.7,786.7,852.9,783.7,852.6,782.9z"/>
	<path class="st2" d="M946,768.7c-0.6-0.8-2.5-0.5-3.6-0.9c-1.4-0.5-2.6-1.3-3.6-2.3c-2.3-2.2-2.5-4.5-3-7.4
		c-0.2-1.1-2.7,2.2-2.8,2.5c-1.2,3.3-0.2,6.7,2.1,9.2c2.2,2.4,6,4,9,2.2C944.8,771.6,946.7,769.6,946,768.7z"/>
	<path class="st6" d="M874,307c-0.3-1.1-4.6,2.8-4.2,4.5c8.4,34.5,17,73.8,11.4,109.3c-5.8,36.5-26.6,67.3-46,97.9
		c-1.7,2.6,0.8,1.4,1.8-0.1c19.7-28.7,39.6-59.7,47.1-94.3C892.2,386.3,883,344,874,307z"/>
	<path class="st6" d="M996.5,388c-3.4-26-3.8-52.5-7.6-78.3c-0.1-0.9-3,2.1-3,2.9c-0.6,25.6,3.3,51.9,6.7,77.2
		c3.6,26.4,7.2,53.5,14.8,79.1c0.2,0.7,2.3-1.6,2.2-2.4C1005.6,440.2,999.9,414.3,996.5,388z"/>
	<path class="st2" d="M917.5,212.7c19.1,11.7,37.6,9.8,47.8-0.8c-0.5-21-19.2-30.4-22.2-35.1c-3.2-5.1,5.1-5.9,3.5-13.1
		c-1.6-7.2-11.5-7.9-10.7-16c0.6-6.1,15.1-15.4,18.4-31.6c-13.5-5.8-37.4-13-44.2,1.7c-6.7,14.4-27.9,10.8-42.1,12.8
		c8.4,11.2-7.9,25.2-12,22.7c-17.1,10.7-20.1,34.6-12.6,37c4.2,1.3-0.8,6.4-5.5,14.8c4.7,5.5,11.9,7.6,21.2,2
		C883.6,192.4,889,195.1,917.5,212.7z"/>
	<path class="st3" d="M920.8,164.8c-3.2-2.3-12.6-5.5-13.5-9.8c-0.9-4,5-11.9,7.5-15c1.8-2.3,3.8-4.6,5.6-6.9
		c4.7-6.1,9.2-12.5,11.4-19.9c6.2-21-11.4-36.5-31.4-31.4c0.6-1.8,0.8-3.6,0.2-5.5c-0.1-0.2-0.2-0.2-0.4-0.1c0,0,0,0,0,0
		c0,0,0,0,0,0c-0.8,0.4-2.4,2.2-2.4,3.1c-2.4-2.2-7.6,0.7-10.7-1.7c-3.6-2.8-3.2-10.5-4.7-15.8c-1.2-0.5-2.5-0.9-3.8-1.2
		c1.1,1.8,1.9,3.8,2.4,6c0.9,3.9-0.3,9.5,1.9,13c3.1,4.8,11.8,0.2,13.3,5.4c0.1,0.2,0.4,0.2,0.7-0.1c-0.3,0.7-0.6,1.3-1,2
		c-5.3,0.4-8.6,4-13.9,4.2c-6.4,0.2-3.2-0.6-7-4.1c-1.5-1.4-2.6-2-4.5-2.6c-9.1-2.5-23,6-29.9,11.3c-5.6,4.2-11.4,10.9-15.2,18.4
		c0.2,0.6,0.4,1.3,0.6,1.9c6.4-14.5,23.8-27.2,38-28c9.5-0.5,6.7,5.9,13.2,8.2c4.9,1.7,10.9-4.4,16-5.9c-1.8,2-3.7,3.8-5.2,5.7
		c-0.4,0.5-1.5,2.7,0,1.8c1.7-1,3.4-2.5,4.8-4.2c-0.2,0.4-0.3,0.7-0.1,0.8c9.6,3,11,28.2,7.6,35.3c-3.8,7.9-12.8,11.4-16.5,19.3
		c-2.5,5.3-5.2,14.4-1.5,19.8c3.9,5.8,7.6,1.3,4.4,11c-2.5,7.8-6.8,9.1-13.3,13.4c-16.2,10.6-29.8,33.7-26.6,53.6
		c1.7,0.6,3.4,1.1,5.2,1.5c-5.7-17.7,1.4-38.9,17.4-50.1c6-4.2,26.5-13,24.8-23.5c-0.4-2.6-2.3-3.3-3.9-5c-4.8-4.7-8.8-7.7-5.9-15.7
		c3.4-9.4,12.5-13.9,16.9-22.3c2.9-5.5,3.5-11.7,2.8-17.8c-0.7-6.4-1.6-20.3-9-22.4c-0.1,0-0.3,0-0.5,0.1c1-1.3,2-2.6,2.8-3.8
		c0.7-1,1.4-2.1,2-3.2c9.9-2.2,20.7-0.2,27.2,8.3c9.8,12.7,1.3,28.6-7.1,39.5c-4.3,5.6-18.5,18.1-14.3,26.9
		c2.4,5,11.4,7.5,15.8,10.9c6.7,5.3,12.3,11.8,16.2,19.4c10.5,20.5,5.7,45.8-13.9,59.1c-0.7,0.5-2.8,3.9-1,2.8
		C954.8,231.5,949.9,185.5,920.8,164.8z"/>
	<path class="st11" d="M864.8,132.7c-3.1-4.8-8.7,0.3-10.8,3.3c-1.1,1.6-2.2,3.5-1.6,5.6c0.3,1.2,1.2,2,2.1,2.8c1.2,1,2.8,1.9,1,3
		c-0.8,0.5-2.8,4.2-1.6,3.6c2.4-1.3,5.7-3.8,5.7-6.9c0.1-2.1-1.6-2.6-2.9-4c-1.7-1.8-2.8-4.8,1.9-5.6c1.5-0.3,2.7,0.4,3.7,1.4
		C862.9,136.5,865.3,133.5,864.8,132.7z"/>
	<path class="st2" d="M1174.3,1007.6c0,0,0.4,29.7,5.9,39.5c-7.1,7-28.5-3.5-29.3-3.1c-0.7,0.4-2.1-27.9-3-30.1
		C1153.9,1012.2,1174.3,1007.6,1174.3,1007.6z"/>
	<path class="st2" d="M1082.9,1022c0,0.3,2.3,23.7,2.3,23.7s-25.1,5.3-30.9-4.3c1.8-10.2,1.3-17.5,1.3-17.5L1082.9,1022z"/>
	<path class="st1" d="M1035.4,525c0,0-35.1,222.7-30.4,263.4c4.7,40.7,34.9,229,34.9,235.5c7.1,6.5,59.2,1.8,60-0.7
		c0.7-2.5-1.4-7.5-1.4-7.5l-5.4-171.6c0,0,44.6,171,45.7,173.8c1.1,2.9,51.8-4.6,52.8-6.8c1.1-2.1-2.5-10.3-2.5-10.3
		s-8.9-193.6-16.8-214.6c12.8-104.5,21.4-249.2,19.5-256.6C1190,522.1,1035.4,525,1035.4,525z"/>
	<path class="st2" d="M1191.8,529.6c-1.9-7.4-156.4-4.6-156.4-4.6s-1.4,8.6-3.5,22.7c14.5,12.6,47.9,42.4,94.7,48
		c-13.5,71.4-24.5,121.8-26.2,134.3c0,0,53,3.2,80.5-25.4C1188.7,619,1193.2,535.2,1191.8,529.6z"/>
	<path class="st12" d="M1037.6,499.9c-0.2,0.5-8.9,23-8.4,28.3c0.5,5.3,48,25.4,102.4,21.5c54.4-3.9,64.4-8.4,65.7-12.8
		c1.2-4.5-1.6-23.4-1.6-23.4L1037.6,499.9z"/>
	<path class="st13" d="M1095.7,504.9C1095.7,504.9,1095.7,504.9,1095.7,504.9l-0.8-0.1c-0.8,0.5-1.8,1.8-1.9,2.4
		c-1.2,13.8-3.2,27.3-5.4,40.9c1.1,0.2,2.1,0.3,3.2,0.4C1093.9,534.1,1095.5,519.3,1095.7,504.9z"/>
	<path class="st13" d="M1105.3,549.8c0.6-5.6,1-11.1,1.5-16.6c0.7-8.9,2-18.4,0.6-27.3l-3.1-0.3c2.2,14.4,0.1,29.3-1.9,44
		C1103.4,549.7,1104.3,549.7,1105.3,549.8z"/>
	<path class="st13" d="M1046.9,500.7c-6.6,9.1-12.7,19-15.9,29.7c0.6,0.5,1.3,1,2.2,1.5c2.9-11.3,9.3-21,15.5-31L1046.9,500.7z"/>
	<path class="st13" d="M1070.6,504.1c0.7-2.1-2.4,1-2.7,1.8c-4.3,11.2-8.1,23.3-10.7,35.5c1.1,0.3,2.3,0.7,3.5,1
		C1063.5,529.6,1066.5,516.9,1070.6,504.1z"/>
	<path class="st13" d="M1056.9,503.1c0.7-2.1-2.3,0.8-2.6,1.5c-4.5,9.3-9.2,20.8-11.4,32c0.9,0.4,1.8,0.7,2.8,1.1
		C1047.7,525.8,1053,514.1,1056.9,503.1z"/>
	<path class="st13" d="M1084,503.8l-1.8-0.2c-0.4,0.5-0.8,1-0.8,1.3c-3.1,13.3-6.4,26.8-9,40.4c1.1,0.2,2.2,0.5,3.3,0.7
		C1078.6,532,1081.2,517.8,1084,503.8z"/>
	<path class="st13" d="M1165.5,510.8l-3.5-0.3c1.2,12.2,1.6,24.1,1.6,36.2c1.4-0.2,2.7-0.3,4-0.5
		C1167.9,534.4,1167.1,522.4,1165.5,510.8z"/>
	<path class="st13" d="M1120.4,550.1c1.6-14.3,2.4-28.9,1.1-43.1l-3-0.3c1.5,14.6,0,28.9-1.5,43.3
		C1118.1,550.1,1119.2,550.1,1120.4,550.1z"/>
	<path class="st13" d="M1192.1,513.1l-3.3-0.3c1.4,9.5,2.1,19,2.7,28.5c1.4-0.5,2.5-1.1,3.3-1.6
		C1194.3,530.8,1193.4,521.9,1192.1,513.1z"/>
	<path class="st13" d="M1179.4,512l-3-0.3c1.6,10.9,2.3,21.8,2.7,32.7c1.2-0.2,2.3-0.4,3.3-0.6
		C1182.2,533.2,1181.1,522.5,1179.4,512z"/>
	<path class="st13" d="M1152.8,547.9c2-12.6,2.9-25.7,1.2-38l-3.3-0.3c2,12.9,0.5,25.8-1.5,38.6
		C1150.5,548.1,1151.6,548,1152.8,547.9z"/>
	<path class="st13" d="M1136.3,549.3c1.7-13.1,1.9-26.5,1.5-39.6c0-0.6-3.2,2-3.1,3.3c0.4,12.4-0.5,24.4-1.8,36.5
		C1134,549.5,1135.2,549.4,1136.3,549.3z"/>
	<path class="st7" d="M829.3,225c0,0-25.4-8.3-30-8.2c-4.6,0.1-8.9,4.1-8.2,9.4c0.7,5.2-1.7,20.2-0.1,28.5c1.7,8.3,16,10,19.9,9.1
		c3.9-0.8,4.8-5.1,4.8-5.1s18.7-7.6,20.3-10.4C837.7,245.4,829.3,225,829.3,225z"/>
	<path class="st7" d="M1016.2,58.4c0,0-27.6,92.6,1.6,113.8c7.5,4,28.6,0,31,0c2.4,0,5.1,29.5,5.9,29.5c0.8,0,52.7-13.9,52.7-13.9
		l-7-24.1c0,0,20.6-83.2,11.5-107.1C1102.9,32.7,1016.2,58.4,1016.2,58.4z"/>
	<path class="st14" d="M1123.4,199.3c0,0-10.2-12.5-12.5-16.8c-2.3-4.3-48.7,10.5-55.5,17C1079.9,210.6,1123.4,199.3,1123.4,199.3z"
		/>
	<path class="st1" d="M1031.6,82.3c0,0,0.4,16.9,0,19c1.8,1.2,10.7-1.6,11-1.8c0.3-0.2,0-5.9,0-5.9s6.6-24.8,17.4-18.7
		c10.8,6.2-1.9,42.3-12.1,40.5c2.1,11.9,27.9,47.7,30.4,50.3c13.4-2.7,22.2-2.1,22.2-2.1s36.7-62.9,24.9-116.2
		c-5.1-15.5-37.2-19-56.7-15.5c-19.5,3.5-54.9,21.1-56.5,23.8C1010,60.3,1031.6,82.3,1031.6,82.3z"/>
	<path class="st12" d="M839.8,215.8c0,0-12.8,3.2-14.6,3.3c-1.9,0.1-4.8,29.2,3,34.4c2.8,1.2,8.8-0.7,8.8-0.7L839.8,215.8z"/>
	<path class="st13" d="M838.8,228.9c-5.3,1.1-10.6,3.2-15.7,4.3c0,0.8,0,1.7,0,2.6c5.2-0.8,10.4-2,15.5-3.3L838.8,228.9z"/>
	<path class="st13" d="M823.8,224.1c-0.1,0.8-0.2,1.7-0.3,2.7c5.2-1.8,10.5-2.9,15.8-3.9l0.3-3.7C834.1,220.2,828.6,222,823.8,224.1
		z"/>
	<path class="st13" d="M837.1,251.3l0.3-3.4c-4.2,0.2-8.4,0.3-12.7,0c0.4,1.4,0.9,2.6,1.6,3.6C829.9,251.7,833.5,251.6,837.1,251.3z
		"/>
	<path class="st13" d="M837.8,242.8l0.3-3.6c-4.9,0.7-9.7,1.3-14.7,1.6c0.1,1.1,0.2,2.2,0.4,3.2C828.4,244,833.2,243.6,837.8,242.8z
		"/>
	<path class="st15" d="M1048,197.9c0,0-12.5-10.2-36-0.5c-23.1-4.3-49.9-10.3-52.4-13.9c-2.5-3.6-22.5-14.8-47.7-12.9
		c-25.2,2-74.2,35.8-74.1,42.2c0.1,6.4-9.5,36.4-3.3,41.7c6.2,5.4,86.5,2.5,90.5,3.6c3.9,1.1,89.2,63.2,94.9,66.7
		c5.7,3.6,19.3,138.1,14.5,153.7c-4.8,15.5-7.5,34.7,28.9,41.7c36.4,7,127.9,16.1,134.9-5.8c7-21.9,2.1-36.4,2.7-40.7
		c0.5-4.3,1.1-20.7,1.1-20.7s45.4-15.7,43.8-59.1c-1.6-43.4-57.8-132.8-65.3-154.2c-7.5-21.4-30.4-36.3-49.2-38.2
		C1083.1,208.1,1048,197.9,1048,197.9z"/>
	<path class="st12" d="M1049.1,196.1c0.8,0.9,20.6,4.3,43.1-0.2c22.5-4.5,32-6.6,35.5-4.2c3.6,2.4,10.8,12.8,8.6,16.9
		c-2.1,4-71.7,20.6-88.3-10.7C1048,196,1049.1,196.1,1049.1,196.1z"/>
	<path class="st13" d="M1083,197.4c-0.9,0.1-1.7,0.2-2.6,0.3c-1.1,5.9-2.3,11.8-3.4,17.7c1,0.2,2.1,0.3,3.1,0.5
		C1081.2,209.7,1082.2,203.5,1083,197.4z"/>
	<path class="st13" d="M1054.4,205.8c0.5,0.4,1,0.8,1.5,1.2c1.6-3,3.1-6,4.6-9.1c-0.7-0.1-1.4-0.1-2-0.2
		C1057.1,200.4,1055.7,203.1,1054.4,205.8z"/>
	<path class="st13" d="M1066.2,212.5c1.7-4.7,3.2-9.5,4.6-14.3c-0.7,0-1.4,0-2.1,0c-1.5,4.5-3.1,9-4.6,13.5
		C1064.8,212,1065.5,212.3,1066.2,212.5z"/>
	<path class="st13" d="M1096.2,195.2c-0.2,7.2-0.9,14.3-1.6,21.4c1,0,2,0,3-0.1c0.9-7.2,1.2-14.6,1.2-21.9
		C1097.9,194.8,1097.1,195,1096.2,195.2z"/>
	<path class="st13" d="M1122.1,190.8c-1.3,0.1-2.7,0.2-4.4,0.4c4.1,7,6.1,14.2,7.5,21.6c1.4-0.3,2.8-0.7,4-1
		C1127.8,204.4,1125.5,197.3,1122.1,190.8z"/>
	<path class="st13" d="M1111.2,192.3c-1.1,0.2-2.3,0.4-3.5,0.7c1.2,7.5,2,15,2.6,22.6c1.3-0.2,2.7-0.4,3.9-0.6
		C1113.7,207.3,1112.6,199.7,1111.2,192.3z"/>
	<path class="st16" d="M916.6,172.9c-0.7-0.7-3.8,2.9-2.9,3.7c4.3,4.3,8.3,8.9,11.6,14c3.3,5,5.4,10.7,8.6,15.7
		c0.4,0.7,2.7-2.3,2.6-3C934.2,191.6,925.2,180.7,916.6,172.9z"/>
	<path class="st1" d="M1034.7,203.4c-1.8-1.2-4-1.7-6.2-1.3c-2.2,0.3-5.9,8.5-3.6,8.5c1.9,0,3.6,0.6,5.2,1.5
		c0.5,0.3,1.4-0.5,1.7-0.8c0.8-0.8,1.5-1.9,2-2.9c0.5-1,1-2.1,1.2-3.3C1035.1,204.6,1035.3,203.8,1034.7,203.4z"/>
	<path class="st1" d="M1043.5,224.8c0-0.2,0-0.5,0.1-0.7c0-0.4-0.1-0.9-0.3-1.2c-0.3-0.6-0.8-1.2-1.3-1.6c-1-0.9-2.2-1.2-3.5-1.3
		c-0.6,0-1.6,1.2-1.9,1.5c-0.6,0.8-1.2,1.7-1.6,2.6c-0.2,0.4-1.8,4.3-0.6,4.4c0.9,0.1,1.8,0.4,2.6,1c0.8,0.6,1.2,1.3,1.8,2.1
		c0.3,0.4,1.5-0.6,1.6-0.7c0.7-0.7,1.2-1.4,1.7-2.2c0.5-0.8,1-1.8,1.3-2.8C1043.4,225.7,1043.4,225.4,1043.5,224.8
		C1043.5,224.9,1043.5,224.9,1043.5,224.8C1043.5,224.9,1043.5,224.9,1043.5,224.8z"/>
	<path class="st1" d="M1048.4,244.7c-0.7-1.3-2.5-1.9-3.8-2.6c-0.5-0.3-1.3,0.4-1.6,0.7c-0.8,0.8-1.5,1.8-2,2.8
		c-0.5,1-1,2.1-1.2,3.2c-0.1,0.6-0.2,1.4,0.3,1.7c0.6,0.5,1.2,0.9,1.9,1.3c0.8,0.5,1.2,0.8,2.1,0.8c1.2,0,2.7-2.7,3.1-3.5
		c0.4-0.7,0.7-1.4,0.9-2.2C1048.4,246.5,1048.7,245.2,1048.4,244.7z"/>
	<path class="st1" d="M1061.9,264.3c-0.1-0.6-0.2-1-0.8-1c-1.5,0-3.1-0.3-4.4-1.1c-0.5-0.3-1.2,0.4-1.5,0.7
		c-0.8,0.7-1.4,1.7-1.9,2.6c-0.5,1.1-1.9,3.5-0.8,4.6c1.2,1.2,2.4,1.9,4.2,1.9c1.3,0,2.2-1,3-1.9
		C1060.8,268.7,1062.1,266.3,1061.9,264.3z"/>
	<path class="st1" d="M1091.5,270.3c-1.1-1-3.3-0.5-4.7-0.5c-1.9,0-3.9-0.2-5.8-0.4c-2.5-0.3-6,7.9-4.4,8.3
		c3.6,0.9,8.6,1.9,11.8-0.1C1089.8,276.7,1093.1,271.9,1091.5,270.3z"/>
	<path class="st1" d="M1123.9,272.1c-0.1-0.1-0.2-0.3-0.3-0.4c-0.1-0.3-0.4-0.5-0.7-0.4c-2.2,0.2-4.4,0.5-6.6,0.8
		c-1.7,0.2-3.1,3.3-3.7,4.7c-0.3,0.7-1.6,4,0.1,3.8c1.3-0.1,2.5-0.3,3.8-0.4c1.5-0.2,2.8-0.1,4-1.1c1.2-0.9,2-2.2,2.6-3.4
		C1123.4,274.9,1124.4,272.9,1123.9,272.1z"/>
	<path class="st1" d="M1154.5,274.2c-0.5-0.8-0.7-0.8-1.6-0.8c-0.7,0-1.4,0.1-2.1,0.2c-1.5,0.2-3.1,0.4-4.6,0.7
		c-2,0.4-5.8,8.2-3.5,8.2c2.6,0,6.3,0.1,8.5-1.5c1.1-0.8,1.9-2.1,2.5-3.4C1154.1,277,1155.1,275,1154.5,274.2z"/>
	<path class="st1" d="M1187.9,269.8c-0.7-0.8-2.5-0.1-3.4,0c-1.3,0.1-2.6,0.1-3.9,0c-0.6,0-1.5,1.2-1.8,1.5
		c-0.6,0.8-1.1,1.6-1.5,2.5c-0.2,0.5-1.8,4-0.6,4.2c3.1,0.7,6.4,0.6,8.8-1.6c1.1-1,1.9-2.5,2.4-3.9
		C1188,271.8,1188.5,270.6,1187.9,269.8z"/>
	<path class="st17" d="M1231.8,343.8c-0.7-1.6-1.3-3.1-2-4.7c-4.2,3.5-8.5,6.9-13,10.1c-16.9,12.4-35.2,8.4-54.6,4.8
		c-36.6-6.8-71.9-18.9-108.5-25.8c-11.7-2.2-23.2-3.4-34.9-4.2c0.5,0.3,0.9,0.6,1.2,0.8c0.9,0.5,1.9,4,3,9.5
		c11.2,1,22.3,2.2,33.5,4.5c38.9,8.1,76.7,21.3,116.1,26.8c7.3,1,15.2,2.4,22.6,1.3c8.4-1.2,15.1-6.1,21.7-11.1
		C1221.8,351.9,1226.8,347.9,1231.8,343.8z"/>
	<path class="st17" d="M980.7,276.8c-1.3-30.1-4.2-59.7-11-88.9c-2.8-0.8-5.1-1.6-6.8-2.4c4.3,18,7.8,36.2,9.9,54.7
		c2,17.7,1.5,35.6,3.1,53.3c2.3,1.7,4.6,3.3,6.9,4.9C981.5,291.3,981,284,980.7,276.8z"/>
	<path class="st17" d="M1009.9,197c-3.9-0.7-7.8-1.5-11.7-2.3c14.1,19.6,21.7,40.5,29.6,63.7c4.2,12.3,8.1,23,20.9,27.9
		c12.7,4.9,26.9,7,40.3,8.5c25.9,2.8,53.3,3.6,79.3,0.8c12.4-1.4,24.6-4.4,35.4-9.9c-1.1-2.1-2.1-4.1-3.2-6.1
		c-13.1,5.3-27.7,7.4-42,7.9c-26,1.1-52.9,0.8-78.6-3.5c-10.4-1.8-24.1-3.3-33.1-9.3c-10.2-6.8-13.3-22.3-16.8-33.3
		C1024.9,225.4,1018.8,210.5,1009.9,197z"/>
	<path class="st1" d="M978.1,196.2c5.5,7.6,11.6,9.7,7.7,20.5c-3.7,10.2-5.3,15.4,4.5,22.5c5.8,4.2,12.2,6.6,11.2,14.6
		c-0.8,6.4-5.5,11.7-6.2,18.3c-1.9,19.2,19.8,8.8,26.5,20.6c5.1,9.1,4.4,24.1,18.6,23.2c8-0.5,15.4-6.3,23.6-3.6
		c6.5,2.2,10.6,8.5,15.7,12.7c4.5,3.8,9.3,5.9,15.2,4.3c7.5-2,13.1-9.2,21.2-8.5c8.1,0.7,13.8,8.7,20.3,12.8
		c6.4,4.1,14.2,6.8,21.9,4.8c7.8-2,13.4-13,22.1-10.8c7.1,1.8,12.6,9.3,20.7,6.7c4.6-1.5,7.5-6.1,9-10.4c1.6-4.3,2.3-7.5,7.4-9.5
		c0.2-0.1,0.4-0.1,0.7-0.2c-1-1.9-1.9-3.9-2.9-5.8c-2,1.4-3.9,3.3-5.5,5.8c-2.5,3.8-2.5,10.3-7.3,11.3c-8.1,1.7-14.3-8.7-22.6-8.1
		c-5.2,0.4-6.9,4.2-10.4,7.3c-8.6,7.5-19.3,5.4-28.3-0.3c-5.9-3.7-11.1-10.5-17.9-12.6c-6.2-1.8-11.2,1.2-16.5,4.2
		c-7.2,4-13.1,6.6-20.5,1.4c-5.5-3.9-9.3-10.2-15.5-13.2c-12.7-6.4-30,11.4-38.4-4.4c-5.4-10.2-4-20.9-17.8-22.6
		c-5.1-0.6-9,0.3-12.2-4.1c-4.6-6.1,0.3-12,2.7-17.6c1.8-4.2,3.6-8.9,2-13.5c-1.7-5.2-7.3-8.1-11.5-11c-2.4-1.6-5.3-3.3-6.7-5.9
		c-2.9-5.6,1.6-9.9,3.2-14.9c1.4-4.2,1.4-7.9-0.9-11.8c-1.4-2.4-3.9-4.5-6.2-6.8c-3.5-0.8-6.9-1.6-9.9-2.4
		C975.4,191.8,976.4,193.8,978.1,196.2z"/>
	<path class="st11" d="M1053.9,89.7c0.3-0.3,1.5-3.2,0.9-2.9c-3.1,1.4-6.1,4.9-7.2,8.1c-0.5,1.5-0.5,2.5,0.6,3.7
		c0.9,1,2.2,1.1,2.8,2.5c1.1,2.5-1.8,3.5-3.5,4.3c-0.8,0.4-1.8,3.6-1.2,3.4c3.3-1.2,6.7-4.2,7.4-7.8c0.3-1.6,0-3-1.2-4.2
		c-0.9-1-3.1-1.3-2.7-3.1C1050,92.3,1052.8,90.7,1053.9,89.7z"/>
	<path class="st2" d="M1063.1,144.4c7,10.6,13.9,20,15.2,21.4c13.4-2.7,22.2-2.1,22.2-2.1s16.3-28,23.7-62.4
		C1069.6,106.8,1059.9,126.7,1063.1,144.4z"/>
	<path class="st2" d="M1121,44.8c-3.7-5-7.6-4.2-10-0.9c-1.9-1.3-3-3-5.6-3.4c-3.7-0.6-8.6,1.6-11.8,3.1c-7.1,3-13.1,7.4-18.5,12.9
		c-0.7,0.7-2.2,4.9-0.6,3.3c5.8-5.5,12.2-9.9,19.8-12.6c3-1.1,5.5-2.1,8.6-1.2c2.7,0.8,3.7,2.9,6.3,3.7c1.4,0.5,2.9-3.2,3-4.2
		c2.7,0.1,4.6,1.5,5.8,3.9C1118.7,50.5,1121.8,45.9,1121,44.8z"/>
	<path class="st18" d="M1055.4,155.1c-19.9,3-32.4,9.8-39.7,15.4c0.7,0.6,1.3,1.2,2.1,1.7c7.5,4,28.6,0,31,0c1.4,0,2.8,9.5,4,17.7
		C1054.9,178.2,1057.5,161.3,1055.4,155.1z"/>
	<path class="st16" d="M1206.9,315.1c-0.8-0.6-2.4,1.5-2.7,1.8c-1.4,1.8-2.8,3.7-4,5.7c-0.4-6.4-1.1-12.8-2.2-19.1
		c-0.2-1-4.4,2.7-4.2,4.4c3.5,23.7,2.5,48.5,3.3,72.5c0.8,24.4,0.7,49.1,2.9,73.4c0.1,0.8,3-2,3.1-3c0.5-24.2-0.9-48.6-1.7-72.8
		c-0.5-17.1,0-34.8-1-52.1c1.7-2.7,3.5-5.3,5.4-7.8C1206.1,317.6,1207.7,315.7,1206.9,315.1z"/>
	<path class="st3" d="M1147.5,569.4c-18,8.1-21.1,18.5-25.1,36.9c-5.7,26.1-18,104.6-20.9,117.6c-3.1,14-3.4,27.9-5.4,41.9
		c-1.8,12.2-6.1,23.4-6.1,35.9c0,14.9,1.2,30.2,2.8,45c0.2,1.4,2.4-2.1,2.4-3c-0.1-12.2-0.9-24.4-1.5-36.6
		c-0.6-12.7,1.2-23.9,4.2-36.3c2.6-10.8,2.5-21.7,3.9-32.7c1.6-12.3,20.1-116.1,22.4-127.4c1.2-5.8,2.1-11.9,3.8-17.5
		c0.2-0.6,0.4-1.2,0.6-1.8c0.3-0.2,0.5-0.5,0.6-0.8c0.9-1.6,4.1-2.7,5.7-3.3c2.3-0.9,4.8-1.3,6.8-2.8c0.5-0.3,2.5-3.1,1.6-3.7
		c-1.5-0.8-3.7,0.3-5.2,0.9c-1.7,0.7-3.4,1.4-5,2.3c-0.6,0.4-1.1,0.8-1.6,1.2c3-4.7,7.2-7.4,13.6-10.3
		C1146.8,574.3,1148.2,569.1,1147.5,569.4z"/>
	<path class="st2" d="M1167.1,780.2c-9.1,1.3-18.1,1.5-27.2,1.5c-1.4,0-3.7,5.1-2.2,5.2c9,0.8,18.1,0.2,27-1
		C1166.4,785.7,1168.3,780,1167.1,780.2z"/>
	<path class="st2" d="M1083.8,765.2c-3.7-1.7-8.5-1.1-12.5-1.9c-4.3-0.9-8.3-2.6-12.5-3.6c-1.1-0.3-3.2,3.6-2.2,4.2
		c6.1,4.3,17.9,7.8,25.3,5.4C1082.6,769.1,1084.9,765.7,1083.8,765.2z"/>
	<path class="st2" d="M1136.3,1008.6c0.3,1.3,0.6,2.4,0.9,3.4c12.8-1.3,25.6-3.1,38.2-5.6c4.7-0.9,9.8-1.8,14.8-2.8
		c-0.6-1.6-1.1-2.7-1.1-2.7s0-0.3,0-1c-5.4,1.1-10.7,2-15.9,3C1161.1,1005.4,1148.7,1007.1,1136.3,1008.6z"/>
	<path class="st2" d="M1038.9,1014.7c0.2,1.6,0.4,3.1,0.6,4.3c19.5,2.4,40.2,1.5,59.1-4.3l-0.2-4.8
		C1078.6,1014.3,1059.7,1016.8,1038.9,1014.7z"/>
	<path class="st1" d="M1001.7,1082.8c0,0-1.5,10.4,0,11.4c1.5,0.9,91.1,2,91.8,0c0.7-2-0.5-16.2-0.5-16.2L1001.7,1082.8z"/>
	<path class="st19" d="M1001.7,1082.8c0,0,19.3,4,46.8,0c27.6-4,43.2-2,44.3-3.9c1.1-1.9-5-35.5-5.5-40.8
		c-0.5-5.4-19.7,7.1-22.2,5.2c-2.5-1.9-12.6-12.3-14.1-10.2c-1.5,2.1-0.1,6.1-0.1,6.9c0,0.9-20.9,20.7-31.7,26.6
		C1008.4,1072.5,1000.4,1074.3,1001.7,1082.8z"/>
	<path class="st19" d="M1198.7,1085.8c0.9-0.7-18.6-48.9-20-50.2c-1.4-1.3-3.2,3.1-4.3,3c-1.1-0.2-22.1-6.1-25.5-0.7
		c-3.4,5.4-7,44.3-7,44.8L1198.7,1085.8z"/>
	<path class="st20" d="M1168.8,1045.8c-8.8-4-16.8-0.6-23,5.2c-0.2,1-0.3,1.9-0.4,2.9c9.1-8,21.7-7.8,30.5,3.2
		c6.7,8.4,8.1,17.9,9.1,27.9l3,0.2C1187.4,1070.4,1183.2,1052.4,1168.8,1045.8z"/>
	<path class="st1" d="M1142,1082.6c0,0-1.4,13.7-0.7,15c0.7,1.3,58,0.5,58.5,0c0.5-0.5-0.1-12.5-1.1-12.5
		C1197.6,1085.1,1180,1082.6,1142,1082.6z"/>
	<path class="st20" d="M1089.3,1051.7c-14.2-0.6-29.6,14.7-35,30.4c0.6-0.1,1.2-0.1,1.8-0.2c4.1-12.2,14.9-24,27.2-26
		c2.4-0.4,4.6-0.3,6.6,0.1C1089.8,1054.5,1089.6,1053,1089.3,1051.7z"/>
	<path class="st20" d="M1018,1067.2c-0.8,0.4-1.6,0.8-2.4,1.2c-1.2,5.2-1.6,10.7-1,15.8c1.3,0.1,2.8,0.1,4.3,0.2
		C1017.6,1078.7,1017.1,1073,1018,1067.2z"/>
	<path class="st20" d="M1065,1043.3c-0.3-0.2-0.8-0.6-1.3-1.1c-4.2,5.2-8.7,10-14.2,14c-2.8,2-5.7,3.8-8.7,5.4
		c-5.4,2.8-11.3,3.1-12.8-0.9c-0.9,0.7-1.9,1.4-2.8,2.1c0.2,0.9,0.5,1.8,1,2.7c3.2,5.1,9.1,2.3,13.4,0.1
		C1049.6,1060.3,1058.5,1052.5,1065,1043.3z"/>
	<path class="st18" d="M815.7,258.7C815.7,258.7,815.7,258.7,815.7,258.7c-0.3-0.3-0.7-0.5-1.1-0.7c-2.7-1.2-6.1-0.4-8.8-0.2
		c-0.9,0.1-2.2,3.3-1.4,3.2c3.1-0.1,7-0.5,9.2,1.4C815.2,260.8,815.7,258.7,815.7,258.7z"/>
	<path class="st7" d="M684.2,905.7c0.3,2.9-15.4,142.7-15.1,145.7c0.4,3-29.6,6.7-29.6,6.7s-1.1-151,0-153
		C640.6,903,684.2,905.7,684.2,905.7z"/>
	<path class="st21" d="M744.4,579.3c0,0-28,133.1-28,142.2c0,9.1-7,21-7,26.3c0,5.3-17.5,155.2-22.1,166.4c-7.5,2-52.8,0.5-66.4-2.3
		c-0.4-1.1,8.2-47.1,6.1-83.5c-2.1-36.4,11.8-243.7,21.8-257.5C658.8,557.2,744.4,579.3,744.4,579.3z"/>
	<path class="st15" d="M648.8,570.9c-10,13.8-23.9,221-21.8,257.5c0.6,10,0.4,20.8-0.3,31.2c17.8,11.3,57.4,36.9,63.1,43.3
		c6.5-37.5,19.6-150.5,19.6-155.1c0-5.3,7-17.2,7-26.3c0-9.1,28-142.2,28-142.2S658.8,557.1,648.8,570.9z"/>
	<path class="st16" d="M627.2,830.7l0.2,6.5c0,0,24.6,20.5,27,23.8c2.4,3.3,8.7-3.6,8.7-3.6L627.2,830.7z"/>
	<path class="st7" d="M655.4,852.7c0,0,59.4,83.2,61,85.7c1.6,2.4,19.3-24.4,18.5-28.4s-45.8-90.3-45.8-90.3L655.4,852.7z"/>
	<path class="st21" d="M584.2,510c0,0-17.1,214.2-9.3,226.7c7.9,12.5,1.2,30.7,3.6,46c2.5,15.3,76,72.8,76.7,76.4
		c0.7,3.6,43.9-34.6,43.9-39.4c0-4.8-4.3-6.7-4.3-6.7s-34.3-87.4-35-95.6c-0.7-8.2,23.6-122.2,23.9-123.7
		c0.4-1.6,58.9-12.6,60.7-14.4c1.8-1.8,11.8-31.8,12.1-37.8c0.4-6.1-9.5-51.4-9.5-51.4L584.2,510z"/>
	<path class="st15" d="M681.3,598.2c0,0-39,12.8-42.5,17.5s14.3,2.5,16.6,11.1c2.3,8.6-7,71-20.5,85.7
		c-13.6,14.6-44.2,33.6-34.3,32.8c10-0.7,35-14.5,32.1-10.7c-2.9,3.9-17.9,22.9-11.8,23.2c6.1,0.3,51.9-12.9,51.9-12.9L681.3,598.2z
		"/>
	<path class="st16" d="M677.9,495.7c-0.1-2.2-1.8,2-1.7,3c1.1,14.3,2.5,29.4,1.4,43.8c-0.7,9.1-3.5,15.1-12.5,16.9
		c-5.7,1.1-12.1,1.3-18,0.6c-15.5-2-19.5-20.6-21.4-33.7c-0.4-3.1-0.7-6.3-0.9-9.4c-0.2-3.4,1-9.7-0.3-12.8c-0.5-1.2-0.1-2-0.9-3.1
		c-0.1-0.1-0.2-0.2-0.4-0.1c-0.3,0.1-0.7,0.1-1,0.2c-0.5,0.1-0.8,1.5-0.9,1.9c-0.1,0.3-0.1,0.6-0.2,0.8c-0.3,1.5,0.5,3.1,1.1,0.8
		c-0.8,2.8,0.7,9.8,0.9,13.2c0.2,3.8,0.5,7.5,1.1,11.2c1.1,7.5,2.9,14.9,6.1,21.8c6.6,14.4,19.1,16.4,34.1,13.4
		c9.5-1.9,13.9-7,14.8-16.1C680.8,530.9,678.9,512.7,677.9,495.7z"/>
	<path class="st16" d="M744.7,488.3c-0.3-1-1.5,2.2-1.3,3.1c2.3,10.7,4.9,21.3,5.7,32.2c0.5,7.1-0.6,19.1-7.5,22.4
		c-4.2,2.1-10.8,1.4-15.2,0.2c-13.6-3.5-14.2-14-16.1-25.8c-1.4-9.1-2.8-18.2-4.3-27.2c-0.3-1.8-1.5,1.7-1.4,2.5
		c1.3,8.5,2.6,16.9,4,25.4c1,6.1,0.9,15.4,4.3,20.9c5.5,9.2,20.4,11.7,29.7,7.8c7.1-3,7.9-9.1,8.3-16.1
		C751.6,518.3,748.4,503.1,744.7,488.3z"/>
	<path class="st7" d="M529.3,166.6c-0.1-1.1-3.6-32.3-5-36.2c-1.3-3.8-22.2-15.6-24.9-19.9c-4.3,4.7,6,14.7,8.3,16.9
		c2.3,2.2-49-4.4-49.5-0.8c-0.5,3.6,24.4,7.8,24.6,9.2c0.3,1.4-30.3,5.7-28.4,8.3c1.9,2.6,28.4,2,28.8,3.9
		c0.4,1.9-23.7,7.5-22.6,10.7c1.1,3.2,23.7,1.5,23.8,3.3c0.1,1.9-21.3,6.2-18.6,9.1c2.7,2.9,17.5,2.3,18.9,1.7
		c1.3-0.5,18.2,2,18.2,2l-25.3,54.9l38.3,4.5C515.9,234.3,530.2,175.1,529.3,166.6z"/>
	<path class="st7" d="M596.2,46.3c-0.8-0.2-51.4,75.6-40.1,92.6c11,15.9,34.5,24,35.6,26c1.1,2,5.8,45.7,5.8,45.7l55.2-14.7
		c0,0-6.2-34.9-5.6-36C647.6,158.8,714,83.2,596.2,46.3z"/>
	<path class="st18" d="M625.4,161l8.3,40l5-1.3c0,0-2.4-36.2-3.1-37.1C634.9,161.7,625.4,161,625.4,161z"/>
	<path class="st18" d="M589.5,142.3c-3.4-6.9-25.3-6.7-34.6-6.3c0.3,1.1,0.6,2.1,1.2,3c11,15.9,34.5,24,35.6,26
		c0.2,0.4,0.6,2.4,1,5.3C592.5,159.2,591.8,146.7,589.5,142.3z"/>
	<path class="st22" d="M686.4,104.8c0,0-1.1-46.1-60.7-67.9c0.2-1.3-1.3-4.3-2.1-5.1c-0.7-0.7-5.1,2.9-5.1,2.9s-1.2-7.2-1.2-9.3
		c-2.1-2-8.5,6.6-8.7,5.8c-0.2-0.8,1.2-7.1,0-9.1c-6.2-1.6-18.5,7.9-19.1,17.6c-0.5,7.7,4.8,12.5,7,14.1c-3.2,4.7-8.3,12.9-8.7,18.9
		c0.9,1.1,5.6,0,5.6,0s-7.8,16.6-8.8,19.5c0.3,2,4.3,0,4.3,0s-1.9,2.9-0.9,4c5.2,0.5,8-1.5,8-1.5s13.8-5.8,14.3,6.3
		c0.5,12.1-15.5,23.4-22.5,17.4c-1.7,14.3,17,47.5,23.7,51c1.6-0.3,4.2-7.8,4.2-7.4c0,0.4,11.1,9.9,19.8,10.8
		c5.2-0.1,9.8-6.6,9.8-6.6s40.9-29.1,47.3-50C692.7,109.6,686.4,104.8,686.4,104.8z"/>
	<path class="st23" d="M649.6,129.3c-4.8,6.9-17.1,9.2-17.1,9.2s6.8-6.4,7.6-9.2c-3.6-8.1-22.2-14.9-33.3-17.7
		c-5,6.9-14.1,10.9-18.9,6.8c-1.7,14.3,17,47.5,23.7,51c1.6-0.3,4.2-7.8,4.2-7.4c0,0.4,11.1,9.9,19.8,10.8c5.2-0.1,9.8-6.6,9.8-6.6
		s13.6-9.7,26.3-21.8C667.9,139.2,660.9,132.1,649.6,129.3z"/>
	<path class="st23" d="M681.6,101.3l-1.1,1.1c-1.2-4.3-2.8-8.4-4.9-12.3c-0.7-1.2-2.6,2.6-2.7,3.1c-0.5,1.8-1,3.5-1.6,5.2
		c-5-6.6-9-13.9-13.7-20.6c-0.6-0.8-2.8,2.6-2.3,3.5c4.7,7.6,10.3,14.7,14.6,22.5c0.5,1,2.1-1.8,2.2-2.2c0.6-1.6,1.2-3.2,1.8-4.8
		c1.6,3.5,3,7,4,10.8c0.2,0.6,0.9-0.1,1.1-0.2c1.4-1.2,1.7-1.5,2.8-2.9C682.4,103.3,683.8,98.7,681.6,101.3z"/>
	<path class="st23" d="M611.5,46.9c-1.4-2.7-3.6-4.8-4.8-7.7c-1-2.5-1.4-5-1.4-7.6c0.6-0.9,1-2.2,0.7-2.7c-0.2-0.3-0.4-0.5-0.7-0.8
		c-0.6-0.7-2.2,2.8-2.3,3.2c-0.6,3.4-0.4,6.9,0.6,10.2c0.9,3,2.8,7.5,5.9,8.8C610.4,50.7,611.9,47.6,611.5,46.9z"/>
	<path class="st23" d="M616.5,40.6c-0.2-1.1-1.3-2-1.9-2.9s-1.1-1.9-1.4-3c-0.3-0.7-1.3,0.7-1.5,0.9c-0.4,0.6-1.1,1.8-0.8,2.6
		c0.4,1.2,0.9,2.3,1.6,3.3c0.6,0.8,1.3,2.1,2.4,2.1C615.8,43.6,616.6,41.4,616.5,40.6z"/>
	<path class="st23" d="M607.5,67.2c-2.8-0.8-6.8,3-8.5,4.8c-2.6,2.7-4.4,5.9-5.6,9.4c-0.3,0.7-0.3,1.3,0.5,1.2
		c0.8-0.1,1.5-2.1,1.7-2.7c0.9-2.4,2.5-4.4,4.4-6c1.9-1.6,4.2-2.4,6.2-3.8C606.5,69.8,608.3,67.4,607.5,67.2z"/>
	<path class="st23" d="M609.6,72.9c-1.4-0.1-2.9,1.1-4,1.8c-1.3,0.9-2.6,2-3.8,3.2c-0.7,0.7-1.4,1.8-1.5,2.8
		c-0.1,0.8,0.3,1.1,0.9,0.5c2.3-2.3,5.1-3.6,7.5-5.7C609.1,75.3,610.6,73,609.6,72.9z"/>
	<path class="st11" d="M601.8,100.2c-1.9-0.2-3.5,0.8-4.8,2.2c-1.3,1.5-2.3,3.4-2.8,5.4c-0.3,1.1-0.4,2.3-0.2,3.4
		c-0.1-0.5,1.1,0-0.3,0.1c-1,0.1-1.4-0.1-2.2-0.4c-0.9-0.4-2.4,2.7-1.8,3.4c2.4,2.8,5.7-1.1,6.4-3.4c0.7-2.1-0.3-5.7,2.6-6.1
		c2.5-0.3,3.2,1.4,4.7,2.8c0.8,0.7,2.2-2.9,2.2-3.4C605.7,101.8,603.9,100.4,601.8,100.2z"/>
	<path class="st14" d="M528.1,230.1c-0.5-1.5-19.1-15.3-53.3-7.7c-1.7,1.4-1.2,12.8-1.2,12.8s45.1,1.8,45.3,1.6
		C519.1,236.7,528.1,230.1,528.1,230.1z"/>
	<path class="st7" d="M1009,265.1c-1.1-3.5-31.1,3.1-30.2,0c0.5-1.8,27.5-6.5,25.4-9.6c-2.1-3.1-35.8,0.8-35.8,0.8s5.8-7.8,2.4-10.3
		c-2.6,0.2-6.2,8.4-18.1,9.5c-11.9,1.1-18.2,17.4-18.6,17.8c-27.4-7.3-87.3-13.4-87.3-13.4s4.5,46.7,10.7,51.8
		c4.3,0.7,83-16.6,83-16.6c24.8,2.7,40.2-3.2,41.2-3.6c1.1-0.4,17.7-1,18.7-2.4c2.9-4.3-15.8-3.1-16.3-4.4
		c-0.4-1.3,22.4-3.1,22.5-6.3c0.2-4.9-26.9,0.4-23.8-2.7C983.8,274.6,1010.1,268.6,1009,265.1z"/>
	<path class="st14" d="M582.6,498.5c0,0.4-1.3,9.8-1.3,13.2c13.5,13.1,172.2-10.8,172-14.1c-0.3-5-3.9-13.1-3.9-13.1L582.6,498.5z"
		/>
	<path class="st14" d="M839.8,257.3c0,0,7.1-2.3,9.2,0c2.1,2.3,17.3,46.3,9.8,56.9c-4,1.1-12.7-0.7-12.7-0.7L839.8,257.3z"/>
	<path class="st14" d="M668.2,192.6c0,0-1.1-5.1-3.1-7.1c-7.8-3.5-68.4,7.2-69.5,26.2C635.3,203.5,668.2,192.6,668.2,192.6z"/>
	<path class="st1" d="M514.3,234.3c0.8,0.3,53.8-25.7,77.1-22.2c7-10.7,82.2-27.2,86.7-18.8c25.4-3.6,115.4,44.7,127.4,48.3
		s25.7,2.9,34.3,12.4c8.6,9.5,15.8,58.6,8.8,60.8c-7,2.2-23.5-8.4-49.3-8c-25.9,0.3-67.4-12.8-68.2-12.8S740,452,745.6,467.2
		c5.6,15.3,7,21.5,6.7,22.8c-0.3,1.3-161.7,18.7-171.3,13.8c-1.1-5-1.6-15.9-1.6-15.9s-16.6-174.7-16.1-181
		c-42,2.5-117,12.1-119.9,6.2c-2.9-5.9,8.6-62.5,28.6-78.7C469.9,233.3,501.9,229.5,514.3,234.3z"/>
	<path class="st18" d="M483.3,148c0.4,1.9-23.7,7.5-22.6,10.7c1.1,3.2,23.7,1.5,23.8,3.3c0.1,1.9-21.3,6.2-18.6,9.1
		c2.7,2.9,17.5,2.3,18.9,1.7c1-0.4,11.5,1,16.1,1.7c0.8-6.6,0-14.3-6.6-18.6c-9.7-6.4-2.5-17.3-3.5-28.9
		c-14.2-1.1-32.2-2.5-32.5-0.4c-0.5,3.6,24.4,7.8,24.6,9.2c0.3,1.4-30.3,5.7-28.4,8.3C456.4,146.8,482.9,146.1,483.3,148z"/>
	<path class="st2" d="M690.9,355.1c10.6-0.2,32.6,13.4,45.2,21.9c-1.8-25.3-3.4-50.1-4.3-65.9c-13.7-29.9-38.2-74.1-65.6-81.6
		c-1.4-0.4-13.5,99.5-48.1,156.3C662.3,396.2,675.5,355.5,690.9,355.1z"/>
	<path class="st2" d="M747.1,471.5c-0.3-0.9-0.7-1.9-1-2.8c-52.5,18.2-111.3,21-166.7,20.4c0.1,0.9,0.1,2.3,0.3,3.8
		C635.3,493.4,694.5,490.3,747.1,471.5z"/>
	<path class="st2" d="M514.8,234.3C514.8,234.3,514.8,234.3,514.8,234.3c-0.1,0-0.1,0-0.1,0c-5.8-1.7-12.8-0.2-18.6,1.2
		c-2.7,0.6-8.8,2-9,5.5c0,1,3.9-0.4,4.3-0.7c3.6-2.9,8.5-3.7,13.4-3.9c-3,1.4-6,3.2-8.6,4.8c-7.6,4.4-16.1,9.5-22,16.1
		c-1.2,1.3,3.7,0.2,4.3-0.2c10.6-7.5,21.4-18.3,34.5-20.9C513.2,235.9,516.2,234.5,514.8,234.3z"/>
	<path class="st2" d="M835.3,268.4c-0.3-1.1-4.6,0.3-4.8,1.2c-1.9,9.7,2.3,23.4-5.7,31.2c-1.1,1.1,3.9,0.3,4.8-0.5
		C837,293.7,837.8,277.2,835.3,268.4z"/>
	<path class="st1" d="M721.5,933.7c0,0-24-2.5-24.8,0c-0.7,2.5,11.2,17.9,12.3,20.7c1.1,2.9,13.5,58.7,14.4,76.7
		c0.9,18,5,16.4,6.6,15.9s31.2-106.7,28-132.8c-13.9-6.1-24.8-15.7-25.3-17C732.2,896.1,723.4,922.2,721.5,933.7z"/>
	<path class="st9" d="M758.2,914.3c0,0,14.7,4.7,15.4,7.2s-23.4,108.1-36.3,125.8c-4.3,2-7.1-0.3-7.1-0.3S752.3,936.2,758.2,914.3z"
		/>
	<path class="st16" d="M717.8,588.8c-16.6-3.4-36,2.5-50.4,10.7c-0.9,0.5-1.2,4.2-0.5,3.9c4.9-2.2,9.6-3.9,14.4-5.2
		c-2.4,5.3-2.3,12.8-3.2,17.6c-4.9,27.2-10.6,54.2-15.9,81.3c-2.2,11-4.5,19.2-0.7,30c4.6,12.9,9.6,25.6,14.5,38.4
		c4.9,12.8,9.6,25.6,14.5,38.4c1.3,3.4,3.1,6.5,4.7,9.7c-7.5,3.4-13.5,10.8-19.3,16.2c-8.4,7.7-16.9,15.4-25.1,23.3
		c-0.6,0.6-1,4.1-0.1,3.3c7.6-6.7,15-13.6,22.4-20.5c7-6.4,14.5-15.8,23.5-19.1c2.3,5.6,0.1,6.3-3.5,10.7l1.3,2.5
		c3.3-3.6,5.4-7.4,8.6-11.2c0.1-0.2,0.2-0.3,0-0.5c-7.6-6.3-9.8-18.3-13.1-27.2c-3.3-9-6.7-17.9-10-26.9c-3.3-9-6.6-18-10-26.9
		c-3.8-10.1-7.6-18-6.1-28.9c2.9-20.2,8-40.2,12-60.2c2-9.7,3.8-19.5,5.9-29.2c1.2-5.6,2.4-11.2,3.6-16.7c0.3-1.8,0.7-3.6,1.1-5.3
		c9.7-2.2,19.6-3,30.3-3.7C717.9,593.1,718.8,589,717.8,588.8z"/>
	<path class="st16" d="M689.5,904.7c-12.1,0.2-24.2,0.5-36.2,0.6c-7.5,0.1-15,0-22.5-1c-2.8-0.4-5.7-1.2-8.6-1.7
		c-0.2,1.2-0.3,2.2-0.5,3.2c4.8,0.7,9.8,2.2,13.9,2.5c6.9,0.5,13.8,0.5,20.7,0.5c10.8-0.1,21.7-0.1,32.5-0.3
		C689,907.3,689.3,906.1,689.5,904.7z"/>
	<path class="st1" d="M647.7,1050.1c0,0-9.3-16.2-12-16.6c-2.7-0.4-6.1,16.2-9.3,19.9c-3.2,3.8-37.4,25-48.2,27
		c-1,0.3-1.7,1-1.7,2.1c5.2,3.6,25.5,9.9,44.4,7.8c25.2-2.9,60.8-13,62.1-16.4c1.2-3.4-3.8-35.3-5.2-38.9
		C676.4,1031.5,647.7,1050.1,647.7,1050.1z"/>
	<path class="st9" d="M683,1074c0,0,3.5,18.8,1.4,20.4c-2.1,1.6-89.5,2.6-99.6,1.2c-10-1.3-8.7-13.2-8.3-13
		c0.4,0.2,8.9,5.6,57.4,1.2C674.8,1080,683,1074,683,1074z"/>
	<path class="st9" d="M634.7,1058.2c-3-1.9-5.6-4.5-8.4-6.8c-1.1-0.9-1.7,3.4-1.6,3.9c0.4,2,0.5,4.1,0.6,6.2
		c-1.3-0.6-2.6-1.2-3.8-2.2c-0.7-0.6-1.6-2.1-2.5-2.2c-1.2-0.3-1.3,0.3-1.9,1.2c-0.9,1.4-0.9,3.9-1,5.5c0,0.9,0.2,1.8,0.4,2.7
		c-1.8-1.6-3.3-3.4-4.5-5.6c-0.3-0.6-2,3.4-1.4,4.6c1.7,3.3,4.1,5.8,7.2,7.8c0.9,0.5,1.5-3.3,1.5-3.7c0.1-1.4,0-2.1-0.3-3.5
		c-0.3-0.8-0.6-1.7-0.9-2.6c-0.3-1.5-0.1-1.8,0.5-0.9c0.7,0.2,1.9,1.8,2.6,2.3c1.4,1,3,1.7,4.6,2.2c1.2,0.4,1.5-3.6,1.5-4.2
		c-0.1-1.7-0.2-3.4-0.4-5.1c2.1,1.8,4.3,3.6,6.2,5.6C634,1064.3,636.3,1059.2,634.7,1058.2z"/>
	<path class="st9" d="M727.2,989c-2.2-0.1-5.9-0.2-8.1-1.8c3.8-3.2,9.3-4.8,9.6-10.8c0.3-5.3-5.3-5.9-10.1-6.5
		c3-3.3,5.4-6.8,6.9-11.4c0.1-0.4,1-3.8-0.1-4c-5.4-0.6-10.6-0.7-15.9,0.4c-1,0.2-1.7,4.6-0.8,4.6c4.6,0.2,9.1,0.2,13.6,0.7
		c-2.1,3.5-5.2,6.4-8.3,8.9c-0.8,0.7-2.8,5.6-1,6.2c3,0.9,6.1,1.9,9.2,1.9c3.4,0.1,6.1-1.9,0.3,2.7c-2.4,1.9-5.1,3-6.4,5.8
		c-3.1,6.8,4.3,9.2,9.9,9.3C727.6,995.2,728.4,989,727.2,989z"/>
	<path class="st18" d="M976.1,261.2c-0.2-1.9-1.4,1.5-1.4,2.1c-0.1,2.7-5,3.8-7,4.5c-2.6,0.8-4.7,1.7-6.5,3.9
		c-0.4,0.5-0.9,3.6-0.1,2.8c3.4-3,8.4-2.6,11.8-5.4C975.3,267.2,976.4,264.1,976.1,261.2z"/>
	<path class="st18" d="M977.4,271.2c-0.2-0.7-0.7-0.2-1.1,0.2c-0.7,0.8-1.4,1.6-2.3,2.3c-0.6,0.5-0.8,1.5-0.9,2.2
		c0,0.2-0.1,1.8,0.5,1.5c1.8-1.1,3.3-2.7,3.7-4.8C977.4,272.1,977.5,271.6,977.4,271.2z"/>
	<path class="st7" d="M395.4,170.6c0.2,1.1-7.1,33.4-7.1,33.9c0,0.5,55.3,10.2,55.3,10.2s7.1-23.7,7.8-24.8
		c0.7-1.1,25.3-11.4,29.4-17.5c4.1-6.1,4.6-86.2-2.9-96c-7.5-9.8-89.8,23.4-89.8,23.4L395.4,170.6z"/>
	<path class="st18" d="M451.4,189.9c0.7-1,21.7-9.9,28.1-16c-8.4-4-19.7-12.7-24.2-30.8c3-1.1,7-12,7-12s-5.5,6.4-10.2,4.6
		s-5.2-14.1-5.2-14.1l-12.7,4.5c0,0-7.9,5.3,1.8,24.1c6.5,12.8,9.1,39.6,10.1,55.8C448.3,199.2,451,190.5,451.4,189.9z"/>
	<path class="st11" d="M461.6,131.1c-2.3,1.9-4.2,3.7-7.3,2.6c-2.8-1-4.4-3.6-5.8-6c-2.4-4.2-3.2-9-5.4-13.2c-0.5-1-2.2,2.6-2.2,3.1
		c0,6.2,2.9,14.5,7.3,19c5,5,10.1,1.1,13.4-3.5C461.9,132.7,462.9,130,461.6,131.1z"/>
	<path class="st11" d="M457.4,126.8c-2.2-2.5-2.5-3.7-1.2-6.9c0.5-1.2,1.1-2.3,1.3-3.5c0.5-3.5-2.3-6-4.4-8.4
		c-0.3-0.4-2,2.1-1.6,2.7c1.2,1.8,3.4,4.1,3.8,6.3c0.4,2.2-1.5,4.2-2.2,6.1c-0.9,2.6-0.8,6.6,2.4,7.3
		C456.5,130.6,458,127.6,457.4,126.8z"/>
	<path class="st24" d="M362.3,109c1.3,1.3,27.8,58.9,32.9,68.3c2.1,0.3,2.7-4.7,2.7-4.7s2.1,6.2,5.2,8.9c3.6-2.9,4.8-7.5,4.8-7.5
		s2.3,7.3,4.5,8.8c6.4-1.4,9.5-10,9.8-9.1c0.4,0.9,2.9,8.6,5,10c19.3-21.6,25.9-74.4,20-84.9C441.3,88.2,362.3,109,362.3,109z"/>
	<path class="st25" d="M363.4,61.7c0,0-13.7,29.4,0,60c1.1,0,3.7-6.9,3.7-6.9s12,12.3,16.4,12.7c2.7-2.1,4.5-13.4,4.5-13.4
		s27.5,13.7,31.2,12.3c2.1-4.1,2.5-12.8,3-12.7c0.5,0.2,25.2,7.5,26.6,6.2c2.1-4.3,1.2-15.3,1.8-15.3s11.8,5.5,12.7,5.5
		c4.3-4.8,5.2-15.2,5.9-14.1c0.7,1.1,7.3,7,8.7,5c1.4-2,1.6-14.5,2.1-14.5c0.5,0,10,7.9,10.9,6.4c0.9-1.4,7-41.4-23.7-55.9
		c0.5,0,8.9,1.6,8.9,1.6C471.1,26.9,404.3,20.5,363.4,61.7z"/>
	<path class="st24" d="M385.5,61.5c0.8-0.5-1.4-4.3-2.3-3.7c-2.8,1.6-11.8,4.7-10.2,8.8c0.6,1.4,1.5,2.6,2.8,3.5
		c1.7,1.3,3.5,1.4,5.3,1.7c-1.4,2.8-3.7,5.2-4.7,8.1c-0.2,0.7,1.7,4.2,2.4,3.5c2.1-1.9,3.6-4.8,5.1-7.2c1.1-1.8,1.5-2.9,0.7-4.8
		c-1.4-3.6-4.1-3.6-6.9-4.2c1.3-1,2.9-2.2,3.1-2.4C382.3,63.6,383.9,62.5,385.5,61.5z"/>
	<path class="st24" d="M417.7,51.6c-1.2-0.6,0.6,3.1,1.4,3.6c14.7,8.8,15.4,23.5,18.4,38.5c0.1,0.6,2.2,3.6,2.3,2.2
		C440.9,79.5,432.8,59.4,417.7,51.6z"/>
	<path class="st24" d="M440,69.6c-2.2-2.7-1.8,0.4-0.6,1.9c4,5.1,5,10.6,6,16.8c0.1,0.4,1.9,3,2.1,2.2C449,83.4,444.4,75,440,69.6z"
		/>
	<path class="st24" d="M364.6,62.3c-0.9,4.9-2.2,9.8-2.5,14.8c0,0.5,1.7,3.1,2,2.4c1.7-4.3,2.1-9.4,3-13.9
		C367.3,64.4,364.7,61.7,364.6,62.3z"/>
	<path class="st24" d="M478.7,54.6c-4.1-8.9-12.8-15.4-22.2-17.8c-0.6-0.2,0.8,3.4,1.9,3.7c8.4,2.4,14.5,7.5,19.4,14.6
		C478.7,56.4,479.3,55.9,478.7,54.6z"/>
	<path class="st9" d="M288.4,1014l-10.4,30.7c0,0,39.6,15.3,41.8,14c2.2-1.3,5.1-38.4,5.1-38.4L288.4,1014z"/>
	<path class="st9" d="M403.2,1010.5c0,1.2-5.9,36.7-6.1,38.8c5.5,8.7,47.1,3.4,46.8,1.1c-0.4-2.3-4.8-34.3-5.1-36.4
		S403.2,1010.5,403.2,1010.5z"/>
	<path class="st7" d="M761.9,154.7c26.5-2.1,27.9-5.4,27-7.8c-0.9-2.3-31.1-4.4-49.8,2.1c8.8-6,7.1-19.3,5.4-19.7
		c-1.7-0.4-12,16.6-23.6,22c-11.6,5.3-16.2,24-16.2,24c-2.9,1.1-75.3-5.7-107.4,14.3c-19.1,0.3-68.5,13.1-68.5,13.1l-10.7,76.8
		c0,0,23.1-8.7,97.8-33.9c46.3-2.3,94.1-41.9,99.7-46.6c0,0,15-0.4,42.6-9.5c7.6,0.6,26.2,1.2,26.6-1c0.4-2.1-24.5-8.5-22.5-10
		c2-1.5,25.3,0.6,24.9-3.2c-0.4-3.8-17.8-5.2-24.1-7.5c6.6-2.8,28.1-0.2,29.2-4.4C793.4,159.2,771.6,155.8,761.9,154.7z"/>
	<path class="st18" d="M705.8,178.9c-0.7,0,5.1,11,6.9,22.5c1.4-1.2,2.5-2,3.1-2.5c0,0,3.9-0.1,11.2-1.4
		C727.2,190.6,724.6,178.9,705.8,178.9z"/>
	<path class="st18" d="M756.5,159.4c-0.8-1.2-2.7-2.1-2.8-3.7c-0.1-1.4,1.2-2.7,1-4.3c-0.3-2.8-3.1-3.3-5.4-3.7
		c-0.8-0.2-2.1,2.6-1.5,2.8c2.6,0.8,4.4,1.7,4.1,4.7c-0.1,1.1-0.9,2-0.8,3.1c0.1,1.4,1,2.4,1.8,3.4c2.8,3.7,2.8,5.4,1.8,9.8
		c-0.4,1.8,1.6-0.7,1.8-1.2c0.9-2.2,1.8-4.6,1.7-7C758,161.8,757.4,160.7,756.5,159.4z"/>
	<path class="st7" d="M260.7,290.5c0,0-62.3,81.7-74.8,101.4c-12.5,19.6,74.8,125.4,74.8,125.4s12.6-15.9,12.6-16.9
		c0-1.1-5-76.2-15.7-96.5c36.8-38.4,51.9-61.7,51.9-61.7L260.7,290.5z"/>
	<path class="st26" d="M266.6,481.5c-1.8,3.5-11.4,53.5-4.3,86c7.1,32.5,43.2,176.7,43.2,176.7s-2.1,5.4,0,15
		c2.1,9.6-38.5,252.3-33.5,262.7c11.4,4.3,55.7,13.2,57.1,13.2c2.5-1.1,56.7-212.7,58.5-221.3c-2.1,82.1,0.4,205.2,0,209.2
		c-0.4,3.9,56,6.8,57.8,5.4s2.1-6.8,2.1-6.8s26.8-207.7,27.5-241.3c0.7-33.6-33.2-278.8-36-284.1
		C436.1,490.8,266.6,481.5,266.6,481.5z"/>
	<path class="st1" d="M266.7,479c0,0-1.9,9.2-2.4,11.5c69.5,16.4,176.2,13.6,176,12.4c-1.1-14.9-1.4-18.3-1.4-18.3L266.7,479z"/>
	<path class="st26" d="M411.5,480.9c-0.2-1-1.1-0.1-1.9,1c-0.5,0-2.3,2.5-2.3,3.4c-0.1,8.5,0,17-0.3,25.5c0,1,1.1-0.1,2-1.5
		c0,1.6,0,3.2-0.1,4.8c0,1,1.2-0.2,2.2-1.7c0.9-1,2.2-3,2.2-3.9C413.6,499.3,413,490.1,411.5,480.9z"/>
	<path class="st26" d="M317.8,477.4c-0.2-0.7-1.3,0.4-2.2,1.6c-0.1-0.1-0.2-0.2-0.4-0.3c-1-0.8-2.6,3.2-2.7,3.8
		c-1.7,7.4-2.6,14.8-2.9,22.4c-0.1,1.8-0.2,3.6-0.1,5.4c0,0.6,0.4,0.4,1-0.1c0,0.8,0,1.6,0,2.5c0,1.8,3.4-2.8,3.4-4.3
		c0-1.8,0.1-3.5,0.1-5.3c0.1-1.1,0.1-2.2,0.2-3.3c-0.1,4-0.1,7.9,0,11.9c0.1,1.8,3.5-2.8,3.5-4.3c-0.3-9.8,0-19.6,1-29.3
		C319,476.6,318.5,476.8,317.8,477.4z"/>
	<path class="st16" d="M296.6,479.9l-2.6,18.2c0,0-30.2-3.8-30.5-4.4c0-2.1,3.3-16.8,3.3-16.8L296.6,479.9z"/>
	<path class="st8" d="M367.7,198.4c0,0-54.4,6.2-61.9,13.6c-7.5,7.4-51,71-54.2,74.5c-4.6,6.1,41.8,55.7,41.8,55.7
		s-24.6,103.5-26.9,112.6c-2.1,8.3-6.7,9.6-5.8,17.1c1.2,9.5,17.9,5.5,35.9,9.5c17.9,4,143.8,11.8,148.3,7c7.6-8-1-17.4,2.2-21.7
		c3.2-4.3,30.5-150.6,33.2-153.6c2.7-2.9,48.7-19.5,53.5-16.3c8-6.2,16.3-97.4,13.9-100.9c-2.4-3.5-6.2,0-6.2,0s-61.6,8.8-71.5,13.1
		c-11.5-7.2-21.4-3.1-21.4-3.1L367.7,198.4z"/>
	<path class="st1" d="M367.7,198.4c0,0,12.1-9.3,29.1-3c17,6.2,52.2,0.5,52.4,12.8C415,219,373.3,204.3,367.7,198.4z"/>
	<path class="st27" d="M413.4,776.1c-1.1-1.6,17.1-3.7,13.9-8c-3.2-4.3-28.9-13.9-33.7-27.8s-31-119.9-31.6-126.9
		c-0.5-7,20.3-11.8,20.3-15c0-3.2-98.5-8-101.2-6.4c-2.7,1.6,44.4,18.7,47.6,20.9c3.2,2.1-24.1,3.2-24.1,7c0,3.8,25.2,8.6,30,18.2
		c4.8,9.6,21.4,109.2,21.4,114c0,4.8-34.3-1.1-32.1,3.2c2.1,4.3,31,18.7,28.3,23c-2.7,4.3-20.9,7-20.3,9.6
		c0.5,2.7,32.6,24.6,35.3,29.4s-10.8,105.8-8.3,108.1c13.9-53.5,27.6-107.4,28.5-111.6c-0.5,17.8-0.7,37.4-0.8,57.4
		c6.8-26.6,16.6-63.1,20.3-67.8c5.8-7.5,21.9-10.2,20.1-17.1C425.4,779.3,414.5,777.7,413.4,776.1z"/>
	<path class="st28" d="M389.6,769.3c-3-4.6-3.2-7-4.1-12.1c-2-12.3-5.3-24.6-8-36.8c-5.8-25.5-11.8-50.9-19-76
		c-2.9-10.3-4.9-25.7-12.5-33.8c-6.6-7.1-18.6-8.9-27.4-11.7c-1.6-0.5-4.2,5.3-3,5.7c8.9,2.8,20.4,4.6,27,11.6
		c0.1,0.1,0.1,0.2,0.2,0.2c-0.1,0-0.2,0-0.3,0c-2.7,0.2-5.4,0.6-8.1,0.8c-1.1,0.1-3,4.2-1.8,4.3c4.3,0.2,9.8,1.4,13.9,0.1
		c4.6,8.3,6.4,19.7,8.8,28c6.6,23.1,12.3,46.5,17.7,70c2.6,11.4,5.1,22.8,7.7,34.2c1,4.7,1.1,9.8,2.3,14.3c0.8,2.8,4.6,6.1,5,8.4
		c0.5,3.2-3.4,5.9-3.9,9.1c-0.5,3.1,0.8,5.8,1.5,8.8c1.8,8.4,1.3,16.5-0.6,24.8c-0.4,1.7,1.6-1,1.8-1.5c3-8.6,4-17.6,2.5-26.6
		c-1.1-6.4-0.7-6.6,1.5-11.5c0.5-1.1,1.2-2,1.4-3.2C392.4,773.2,391.3,772,389.6,769.3z"/>
	<path class="st28" d="M363.2,517.3c-16.6-1.1-33.3-1-50-2.1c-1.2-0.1-3,4.5-2.2,4.6c16.1,2.8,33.9,4.3,50.1,2.4
		C362.4,522.1,364.6,517.4,363.2,517.3z"/>
	<path class="st28" d="M276.3,512.8c-4.8-0.2-10-1-15-0.9l-0.5,5.4c1.4,0.1,2.9,0.2,4.2,0.3c3,0.2,6.1,0.4,9.1,0.6
		C275.4,518.3,277.7,512.9,276.3,512.8z"/>
	<path class="st10" d="M317.4,292c0.3-4-11,13.8-12.9,14.4c0.6-3.5,1-7,1.4-10.6c0.9-5,2-10.9,2.6-15.8c2.2-9,5.4-17.5,8.1-26.3
		c0.3-1-3.6-2.5-4.1-1.6c-4.4,8.1-8.3,18.1-10.8,28.3c-6.3,12.3-15.6,33-21.7,47c7.5,8.5,13.5,15,13.5,15s-2.2,9.4-5.4,22.9
		C299.8,337.1,317.2,294.8,317.4,292z"/>
	<path class="st10" d="M454.7,332.6c-0.6,5-12.9,7.8-13.5,9.6c-0.5,1.5,22.3,4,31.6,5c3.9-19.1,7-33.1,7.8-34
		c1.2-1.4,11.8-5.7,23.2-9.5c0,0-52.1,12.5-69.2,17.8C417.4,326.9,455.2,327.7,454.7,332.6z"/>
	<path class="st10" d="M415.7,229.5c0,0-50.9,29.8-78.4,152.6c-9.5,14.5,2.8-78.2,15.1-105.5c-1.1-4.3-17.9,17.1-18.5,9.3
		c-0.6-7.9,15-56.4,33.5-66.7c5.6-2.1,4.5,7.9,0.4,18.6c-4.1,10.7,20.2-16.3,38-18.8C423.6,216.3,426.6,220.5,415.7,229.5z"/>
	<path class="st10" d="M448.4,205.2c-7.5,0.3-12.7,8.4-16.7,14.1c-5.2,7.3-10.1,15.9-11.7,24.8c-0.2,1.1,4,2.8,4.6,1.8
		c3.7-7.1,6.3-14.5,10.6-21.2c4-6.3,9.2-15,16.5-17.5C452.7,206.8,449,205.2,448.4,205.2z"/>
	<path class="st27" d="M447.7,1020.3c0.1-1.2,0.4-3.2,0.8-5.9c-8.2-0.1-16.4-0.3-24.7-0.8c-11.9-0.7-24.1-2.5-36.2-3.1
		c0,1.8,0,3.4,0,4.8c11.3,1,22.8,3,33.9,3.7C430.2,1019.6,438.9,1020.1,447.7,1020.3z"/>
	<path class="st27" d="M370.1,801.5c-3,37-12.2,72.5-22.9,107.9c-5.4,17.9-11.2,35.7-16.8,53.6c-5.8,18.5-13.7,37.6-17,56.7
		c0,0.1,0,0.2,0.1,0.3c-13.8-3.5-27.6-6.7-41.6-9.3c-0.1,1.9-0.2,3.5-0.3,5c8.9,2.1,17.8,4,26.6,6.2c5.9,1.4,11.8,2.9,17.6,4.5
		c2.4,0.6,9.6,1.9,15.1,3.7c0.4-1.4,0.9-3.1,1.5-5c-5.1-1.4-10.2-2.8-15.4-4.2c8-17.5,12.2-37.7,17.9-56.2
		c5.5-17.9,10.9-35.8,16.4-53.7c10.8-35.1,20.7-71,22.9-107.9C374.3,801.9,370.1,800.8,370.1,801.5z"/>
	<path class="st27" d="M461.9,763.4c-2.1-20.3-1.6-41-4.6-61.1c-3.2-21.3-10.9-41.7-15.2-62.8c-4.9-24.4-7.7-49-10.1-73.7
		c-0.4,0.3-0.8,0.7-1.2,1c-1,0.9-2,1.8-3,2.7c2.2,23.1,5.3,46.1,9.9,68.7c4.1,19.8,11.1,39,14.7,58.9c3.6,20.2,2.6,41,4.9,61.4
		c4.7,42.4-7.6,86.3-14.6,128c-7.3,43.1-13.6,86.5-13.7,130.3c1.4,0.1,2.7,0.1,4.1,0.2c0.4-43.3,6.6-86.3,13.8-128.9
		c3.7-22,7.6-43.9,11.1-65.9C461.1,802.5,464,783.3,461.9,763.4z"/>
	<path class="st27" d="M431.1,555.3c-1.3-14.6-2.5-29.2-4-43.8c-0.1-1-3.8-2.1-3.8-1.1c1,16.2,2.1,32.4,3.6,48.6
		C428.4,557.8,430,556.6,431.1,555.3z"/>
	<path class="st28" d="M446,539.2c-0.2-1.4-0.4-2.8-0.6-4.1c-4.3,13.9-13.1,26.7-27.2,30.9c-1.1,0.3-3.5,5-2.1,4.9
		c11.2-0.6,19-12,24.3-20.7C442.5,546.7,444.4,543,446,539.2z"/>
	<path class="st9" d="M383.3,1067.4c0,0-10,23.2-7.3,28c2.7,4.8,124.2,1.8,124.9-1.4c0.7-3.2-11.2-10.3-11.2-10.3L383.3,1067.4z"/>
	<path class="st1" d="M383.3,1067.4c0,0,8-28.9,10-32.3c2-3.4,23.4,9.6,28.2,10.2c4.8,0.5,31.6-16.8,32.8-14.3
		c1.2,2.5-4.1,15-4.1,15s30.9,31.6,44.1,40.8C497.3,1091,423.2,1091.5,383.3,1067.4z"/>
	<path class="st3" d="M473.9,1069.2c-4.3,0.2-8.9-1-12.5-2.1c-5.9-1.8-11.5-5.6-16.9-8.7c-7.2-4.1-13.8-8.6-20-13.9
		c-0.9,0.3-1.7,0.6-2.3,0.7c9.5,9.5,22.7,16.5,34.5,21.9c5.1,2.3,14,6.3,21.1,5.8C476.5,1071.7,475.2,1070.5,473.9,1069.2z"/>
	<path class="st9" d="M469.3,1064.5c-2,1.6-5,3.7-8.1,5.3c1.9-3.4,4-6.8,5.3-10.3c0.4-1.2-3.4-2-4.1-1.8c-3.7,1.2-7.2,3-10.6,4.8
		c2.4-4.2,4.7-8.7,5.2-13.1c0.1-1.2-3.4-2.4-4.2-1.8c-6,4.1-11.3,8.6-16.9,13.3c-0.6,0.5,2.2,1.8,2.8,1.4c4.4-2.6,8.3-5.9,12.5-8.9
		c-1.6,4.6-4.3,9.2-6.7,13c-0.6,0.9,3.3,2,3.9,1.7c4-1.7,7.8-4.1,11.8-6c-1.8,3.3-3.7,6.6-5.2,10c-0.5,1.1,3.3,2,3.9,1.9
		c4.8-0.6,11-4.5,14.7-7.4C474.2,1065.9,470.2,1063.7,469.3,1064.5z"/>
	<path class="st9" d="M268.5,1066.3c0,0-7.1,27.1-4.5,29.8c2.7,2.7,101.7,1.1,104.9,0c3.2-1.1-1.7-10.5-1.7-10.5L268.5,1066.3z"/>
	<path class="st1" d="M268.5,1066.3c0,0,48.4,23.7,98.8,19.3c-1.2-2.5-34-25.5-36.4-29.1c-2.3-3.6,1.2-12.3,1.2-15.9
		c0-3.6-16.8,6.3-16.8,6.3s-29.4-17-34.6-16.9C275.7,1030.1,268.5,1066.3,268.5,1066.3z"/>
	<path class="st3" d="M311.6,1044.7c6.7,17.6,26.3,34.6,45.9,32.7c-1.3-1-2.7-2-4.1-3.1c-16.3-0.7-31.2-12.5-38-27.5
		C315,1046.6,313.6,1045.8,311.6,1044.7z"/>
	<path class="st9" d="M348.9,1069.7c-1.3,1-3.6,3.1-5.9,4.7c1.3-3.6,2.7-8,0.6-10c-0.8-0.8-2.6-1.7-3.8-1.3c-2.4,0.9-4.7,2.7-6.9,4
		c-0.4,0.2-1.2,0.8-2,1.3c2.1-4,4.4-8.4,3.7-12.5c-0.2-1.1-3.2-1.9-4-1.5c-4.4,2.1-8.9,6.8-13.5,8.1c-1.1,0.3,1.8,1.5,2.4,1.5
		c3.8-0.2,7.2-2.8,10.6-5.1c-1,4.2-3.7,8.8-5.1,12.1c-0.3,0.8,2.3,1.6,2.7,1.7c4.2,0.8,8.6-3.2,12.6-5.9c-0.3,3.4-2.2,8.2-2.6,9.8
		c-0.3,1,2.5,1.7,3.1,1.7c3.9,0.3,8.6-4.5,11.7-6.6C353.3,1071,349.8,1069,348.9,1069.7z"/>
	<path class="st18" d="M205.9,415.2c-3.5-2.1-6.7-3.9-9.1-7.4c-2.5-3.6-2.8-7.4-4.3-11.3c-0.3-0.7-3.5-2.3-3.9-1.3
		c-1.8,4.4,2.1,10.6,4.9,13.9c3.1,3.5,7.3,6.4,12,7.3C206.7,416.6,207,415.9,205.9,415.2z"/>
	<path class="st18" d="M619.5,211.9c-0.4-0.4-4-2.1-3.8-0.9c0.6,3.6,2.6,6.5,2.7,10.4c0.1,3.9-1.3,7.3-1.8,11.2
		c-0.1,0.9,2.9,2.1,3.6,1.5C626,228.9,624.8,217.1,619.5,211.9z"/>
</g>
</svg>
